control3min_grf.mot
version=1
nRows=20
nColumns 19
inDegrees=yes
endheader
time	1_ground_force_vx	1_ground_force_vy	1_ground_force_vz	1_ground_force_px	1_ground_force_py	1_ground_force_pz	1_ground_torque_x	1_ground_torque_y	1_ground_torque_z	2_ground_force_vx	2_ground_force_vy	2_ground_force_vz	2_ground_force_px	2_ground_force_py	2_ground_force_pz	2_ground_torque_x	2_ground_torque_y	2_ground_torque_z
            3.751500	            5.222437	          379.303274	          -45.848759	           -0.215530	            0.006231	           -0.406342	           -0.011251	           -0.817136	            0.098772	           18.641236	          303.622838	           31.625297	           -0.216920	            0.005673	           -0.690113	            0.046995	            0.765445	            0.079729
            3.752000	            5.173082	          386.697863	          -46.688212	           -0.215629	            0.006230	           -0.406161	           -0.008707	           -0.650901	            0.078587	           18.013528	          308.955942	           33.052454	           -0.217053	            0.005671	           -0.689535	            0.052296	            0.896954	            0.095957
            3.752500	            5.168575	          395.175492	          -47.844137	           -0.216105	            0.006228	           -0.405709	           -0.008513	           -0.650889	            0.078804	           17.616481	          315.212771	           33.872731	           -0.216918	            0.005670	           -0.689283	            0.056976	            1.019478	            0.109553
            3.753000	            5.256182	          401.309654	          -49.010337	           -0.216080	            0.006230	           -0.406156	           -0.008479	           -0.647355	            0.079059	           18.063103	          321.469632	           35.537355	           -0.216927	            0.005673	           -0.690053	            0.056241	            1.000923	            0.110649
            3.753500	            5.113352	          408.527135	          -50.584038	           -0.216385	            0.006229	           -0.406001	           -0.009216	           -0.736326	            0.091172	           18.555809	          327.911701	           36.967976	           -0.216869	            0.005674	           -0.690308	            0.053006	            0.936709	            0.105602
            3.754000	            4.924943	          414.302483	          -52.163801	           -0.216292	            0.006230	           -0.406195	           -0.009126	           -0.767678	            0.096656	           19.236596	          334.170078	           38.444789	           -0.217375	            0.005672	           -0.690244	            0.051515	            0.894894	            0.102954
            3.754500	            4.507394	          422.780757	          -53.502126	           -0.216555	            0.006228	           -0.405701	           -0.008575	           -0.804354	            0.101789	           19.729549	          340.610078	           40.438547	           -0.217589	            0.005673	           -0.690543	            0.048034	            0.829256	            0.098453
            3.755000	            3.907273	          429.996184	          -54.616130	           -0.216949	            0.006228	           -0.405774	           -0.007508	           -0.826241	            0.104945	           19.749908	          348.154128	           42.201806	           -0.217801	            0.005674	           -0.691277	            0.046343	            0.816947	            0.099027
            3.755500	            3.949427	          436.490083	          -55.597247	           -0.216788	            0.006229	           -0.405911	           -0.007056	           -0.779878	            0.099336	           19.587441	          354.409186	           43.772833	           -0.217984	            0.005673	           -0.691026	            0.049906	            0.902988	            0.111527
            3.756000	            4.312041	          443.525461	          -56.714405	           -0.217053	            0.006228	           -0.405874	           -0.007350	           -0.756007	            0.096672	           19.279607	          361.954060	           44.973095	           -0.217714	            0.005675	           -0.691281	            0.057064	            1.071319	            0.133112
            3.756500	            4.949809	          451.281500	          -57.737451	           -0.217105	            0.006229	           -0.405923	           -0.008195	           -0.747118	            0.095587	           19.346092	          369.682923	           46.596207	           -0.218266	            0.005674	           -0.691575	            0.054106	            1.033901	            0.130317
            3.757000	            5.541621	          459.037788	          -58.806234	           -0.217257	            0.006228	           -0.405812	           -0.009609	           -0.795983	            0.101972	           19.369651	          376.307273	           48.074612	           -0.218175	            0.005674	           -0.691431	            0.054475	            1.058327	            0.135205
            3.757500	            5.582975	          466.794499	          -60.011217	           -0.217450	            0.006227	           -0.405554	           -0.009883	           -0.826359	            0.106237	           19.906814	          383.483838	           50.117907	           -0.218279	            0.005674	           -0.691751	            0.051859	            0.999018	            0.130563
            3.758000	            6.037113	          473.469756	          -61.221868	           -0.217615	            0.006226	           -0.405289	           -0.009678	           -0.759033	            0.098147	           20.533127	          391.949010	           52.400402	           -0.218636	            0.005675	           -0.692154	            0.044656	            0.852430	            0.113963
            3.758500	            5.986490	          480.325938	          -62.613919	           -0.217625	            0.006227	           -0.405619	           -0.010024	           -0.804262	            0.104841	           20.882766	          399.125963	           54.162207	           -0.218819	            0.005674	           -0.692147	            0.048978	            0.936110	            0.127032
            3.759000	            6.395727	          488.080753	          -63.361252	           -0.217902	            0.006225	           -0.405064	           -0.009938	           -0.758386	            0.098451	           20.717203	          406.299884	           56.252729	           -0.218988	            0.005674	           -0.692471	            0.050534	            0.991068	            0.137215
            3.759500	            6.988239	          495.114995	          -64.203852	           -0.218202	            0.006226	           -0.405401	           -0.011538	           -0.817438	            0.106001	           20.315772	          413.843583	           57.687671	           -0.218992	            0.005674	           -0.692452	            0.053526	            1.090360	            0.151991
            3.760000	            7.810356	          502.508966	          -64.862036	           -0.218510	            0.006225	           -0.405268	           -0.013077	           -0.841387	            0.108603	           20.095820	          423.044784	           59.269231	           -0.219029	            0.005676	           -0.692904	            0.053938	            1.135477	            0.159082
            3.760500	            8.814982	          510.264941	          -65.840139	           -0.218499	            0.006226	           -0.405501	           -0.014072	           -0.814588	            0.105107	           20.022459	          430.588663	           60.985602	           -0.219230	            0.005675	           -0.692885	            0.054011	            1.161523	            0.164510
            3.761000	            9.820554	          516.577549	          -66.549283	           -0.218695	            0.006227	           -0.405688	           -0.014626	           -0.769354	            0.099114	           20.185302	          437.581301	           62.606046	           -0.219615	            0.005674	           -0.692877	            0.047435	            1.028305	            0.147123
